<svg xmlns="http://www.w3.org/2000/svg" viewBox="0 0 64 64" role="img" aria-label="Agenda Sport">
  <rect width="64" height="64" rx="14" fill="#071a22"/>
  <rect x="7" y="13" width="50" height="42" rx="6" fill="#0f766e"/>
  <path d="M7 22h50" stroke="#e6fffb" stroke-width="3" opacity=".35"/>
  <path d="M17 8v12M47 8v12" stroke="#f5c542" stroke-width="5" stroke-linecap="round"/>
  <circle cx="49" cy="16" r="7" fill="#f5c542"/>
  <path d="m49 9 4 3-2 5h-5l-2-5Z" fill="#071a22"/>
  <path d="M12 45 21 25h7l9 20h-7l-2-5h-8l-2 5h-6Zm10-10h4l-2-6-2 6Z" fill="#f8fafc"/>
  <path d="M42 46c-5 0-9-2-12-4l4-5c3 2 5 3 8 3 2 0 3-1 3-2 0-1-1-2-5-3-6-1-10-3-10-8 0-5 4-8 10-8 4 0 8 1 11 3l-4 5c-2-1-5-2-7-2-2 0-3 1-3 2s2 2 6 3c6 1 9 4 9 8 0 5-4 8-10 8Z" fill="#f8fafc"/>
  <path d="M12 55c7 3 14 5 21 5 8 0 15-2 20-7" stroke="#f5c542" stroke-width="4" stroke-linecap="round" fill="none"/>
</svg>
